<mxfile host="Electron" modified="2023-09-02T07:41:10.977Z" agent="Mozilla/5.0 (Macintosh; Intel Mac OS X 10_15_7) AppleWebKit/537.36 (KHTML, like Gecko) draw.io/21.2.1 Chrome/112.0.5615.87 Electron/24.1.2 Safari/537.36" etag="uTqx36atxULZcZKntN8K" version="21.2.1" type="device">
  <diagram name="ページ1" id="aSlxc9tsZfphCZpA_yYC">
    <mxGraphModel dx="1194" dy="674" grid="1" gridSize="10" guides="1" tooltips="1" connect="1" arrows="1" fold="1" page="1" pageScale="1" pageWidth="827" pageHeight="1169" math="0" shadow="0">
      <root>
        <mxCell id="0" />
        <mxCell id="1" parent="0" />
        <mxCell id="ef5fkB2S-IdkGvZBPRla-36" style="edgeStyle=orthogonalEdgeStyle;rounded=0;orthogonalLoop=1;jettySize=auto;html=1;exitX=0.5;exitY=0.5;exitDx=0;exitDy=0;exitPerimeter=0;entryX=1;entryY=0.5;entryDx=0;entryDy=0;" parent="1" source="ef5fkB2S-IdkGvZBPRla-1" target="ef5fkB2S-IdkGvZBPRla-22" edge="1">
          <mxGeometry relative="1" as="geometry" />
        </mxCell>
        <mxCell id="ef5fkB2S-IdkGvZBPRla-37" style="edgeStyle=orthogonalEdgeStyle;rounded=0;orthogonalLoop=1;jettySize=auto;html=1;exitX=0.5;exitY=0.5;exitDx=0;exitDy=0;exitPerimeter=0;entryX=1;entryY=0.5;entryDx=0;entryDy=0;" parent="1" source="ef5fkB2S-IdkGvZBPRla-1" target="ef5fkB2S-IdkGvZBPRla-20" edge="1">
          <mxGeometry relative="1" as="geometry" />
        </mxCell>
        <mxCell id="ef5fkB2S-IdkGvZBPRla-40" style="edgeStyle=orthogonalEdgeStyle;rounded=0;orthogonalLoop=1;jettySize=auto;html=1;exitX=0.5;exitY=0.5;exitDx=0;exitDy=0;exitPerimeter=0;entryX=1;entryY=0.5;entryDx=0;entryDy=0;" parent="1" source="ef5fkB2S-IdkGvZBPRla-1" target="ef5fkB2S-IdkGvZBPRla-19" edge="1">
          <mxGeometry relative="1" as="geometry" />
        </mxCell>
        <mxCell id="ef5fkB2S-IdkGvZBPRla-41" style="edgeStyle=orthogonalEdgeStyle;rounded=0;orthogonalLoop=1;jettySize=auto;html=1;exitX=0.5;exitY=0.5;exitDx=0;exitDy=0;exitPerimeter=0;entryX=1;entryY=0.5;entryDx=0;entryDy=0;" parent="1" source="ef5fkB2S-IdkGvZBPRla-1" target="ef5fkB2S-IdkGvZBPRla-18" edge="1">
          <mxGeometry relative="1" as="geometry" />
        </mxCell>
        <mxCell id="ef5fkB2S-IdkGvZBPRla-42" style="edgeStyle=orthogonalEdgeStyle;rounded=0;orthogonalLoop=1;jettySize=auto;html=1;exitX=0.5;exitY=0.5;exitDx=0;exitDy=0;exitPerimeter=0;entryX=1;entryY=0.5;entryDx=0;entryDy=0;" parent="1" source="ef5fkB2S-IdkGvZBPRla-1" target="ef5fkB2S-IdkGvZBPRla-23" edge="1">
          <mxGeometry relative="1" as="geometry" />
        </mxCell>
        <mxCell id="ef5fkB2S-IdkGvZBPRla-1" value="管理者" style="shape=umlActor;verticalLabelPosition=bottom;verticalAlign=top;html=1;outlineConnect=0;" parent="1" vertex="1">
          <mxGeometry x="680" y="210" width="40" height="90" as="geometry" />
        </mxCell>
        <mxCell id="ef5fkB2S-IdkGvZBPRla-25" style="edgeStyle=orthogonalEdgeStyle;rounded=0;orthogonalLoop=1;jettySize=auto;html=1;exitX=0.5;exitY=0.5;exitDx=0;exitDy=0;exitPerimeter=0;entryX=0;entryY=0.5;entryDx=0;entryDy=0;" parent="1" source="ef5fkB2S-IdkGvZBPRla-2" target="ef5fkB2S-IdkGvZBPRla-10" edge="1">
          <mxGeometry relative="1" as="geometry" />
        </mxCell>
        <mxCell id="ef5fkB2S-IdkGvZBPRla-31" style="edgeStyle=orthogonalEdgeStyle;rounded=0;orthogonalLoop=1;jettySize=auto;html=1;exitX=0.5;exitY=0.5;exitDx=0;exitDy=0;exitPerimeter=0;" parent="1" source="ef5fkB2S-IdkGvZBPRla-2" target="ef5fkB2S-IdkGvZBPRla-11" edge="1">
          <mxGeometry relative="1" as="geometry" />
        </mxCell>
        <mxCell id="ef5fkB2S-IdkGvZBPRla-32" style="edgeStyle=orthogonalEdgeStyle;rounded=0;orthogonalLoop=1;jettySize=auto;html=1;exitX=0.5;exitY=0.5;exitDx=0;exitDy=0;exitPerimeter=0;entryX=0;entryY=0.5;entryDx=0;entryDy=0;" parent="1" source="ef5fkB2S-IdkGvZBPRla-2" target="ef5fkB2S-IdkGvZBPRla-12" edge="1">
          <mxGeometry relative="1" as="geometry" />
        </mxCell>
        <mxCell id="ef5fkB2S-IdkGvZBPRla-33" style="edgeStyle=orthogonalEdgeStyle;rounded=0;orthogonalLoop=1;jettySize=auto;html=1;exitX=0.5;exitY=0.5;exitDx=0;exitDy=0;exitPerimeter=0;entryX=0;entryY=0.5;entryDx=0;entryDy=0;" parent="1" source="ef5fkB2S-IdkGvZBPRla-2" target="ef5fkB2S-IdkGvZBPRla-13" edge="1">
          <mxGeometry relative="1" as="geometry" />
        </mxCell>
        <mxCell id="ef5fkB2S-IdkGvZBPRla-34" style="edgeStyle=orthogonalEdgeStyle;rounded=0;orthogonalLoop=1;jettySize=auto;html=1;exitX=0.5;exitY=0.5;exitDx=0;exitDy=0;exitPerimeter=0;entryX=0;entryY=0.5;entryDx=0;entryDy=0;" parent="1" source="ef5fkB2S-IdkGvZBPRla-2" target="ef5fkB2S-IdkGvZBPRla-16" edge="1">
          <mxGeometry relative="1" as="geometry" />
        </mxCell>
        <mxCell id="ef5fkB2S-IdkGvZBPRla-35" style="edgeStyle=orthogonalEdgeStyle;rounded=0;orthogonalLoop=1;jettySize=auto;html=1;exitX=0.5;exitY=0.5;exitDx=0;exitDy=0;exitPerimeter=0;entryX=0;entryY=0.5;entryDx=0;entryDy=0;" parent="1" source="ef5fkB2S-IdkGvZBPRla-2" target="ef5fkB2S-IdkGvZBPRla-17" edge="1">
          <mxGeometry relative="1" as="geometry" />
        </mxCell>
        <mxCell id="ef5fkB2S-IdkGvZBPRla-2" value="メンバー" style="shape=umlActor;verticalLabelPosition=bottom;verticalAlign=top;html=1;outlineConnect=0;" parent="1" vertex="1">
          <mxGeometry x="100" y="200" width="40" height="90" as="geometry" />
        </mxCell>
        <mxCell id="ef5fkB2S-IdkGvZBPRla-9" value="" style="rounded=0;whiteSpace=wrap;html=1;fillColor=none;" parent="1" vertex="1">
          <mxGeometry x="190" y="60" width="460" height="640" as="geometry" />
        </mxCell>
        <mxCell id="ef5fkB2S-IdkGvZBPRla-10" value="チームに参加" style="ellipse;whiteSpace=wrap;html=1;" parent="1" vertex="1">
          <mxGeometry x="230" y="90" width="100" height="70" as="geometry" />
        </mxCell>
        <mxCell id="ef5fkB2S-IdkGvZBPRla-11" value="ペアに参加" style="ellipse;whiteSpace=wrap;html=1;" parent="1" vertex="1">
          <mxGeometry x="230" y="170" width="100" height="70" as="geometry" />
        </mxCell>
        <mxCell id="ef5fkB2S-IdkGvZBPRla-12" value="ペアを移動する" style="ellipse;whiteSpace=wrap;html=1;" parent="1" vertex="1">
          <mxGeometry x="230" y="250" width="100" height="70" as="geometry" />
        </mxCell>
        <mxCell id="ef5fkB2S-IdkGvZBPRla-13" value="休会する" style="ellipse;whiteSpace=wrap;html=1;" parent="1" vertex="1">
          <mxGeometry x="230" y="340" width="100" height="70" as="geometry" />
        </mxCell>
        <mxCell id="ef5fkB2S-IdkGvZBPRla-16" value="休会から復帰する" style="ellipse;whiteSpace=wrap;html=1;" parent="1" vertex="1">
          <mxGeometry x="230" y="420" width="100" height="70" as="geometry" />
        </mxCell>
        <mxCell id="ef5fkB2S-IdkGvZBPRla-17" value="課題の進捗を変更する" style="ellipse;whiteSpace=wrap;html=1;" parent="1" vertex="1">
          <mxGeometry x="230" y="515" width="100" height="70" as="geometry" />
        </mxCell>
        <mxCell id="ef5fkB2S-IdkGvZBPRla-18" value="課題一覧を取得・更新する" style="ellipse;whiteSpace=wrap;html=1;" parent="1" vertex="1">
          <mxGeometry x="500" y="390" width="100" height="70" as="geometry" />
        </mxCell>
        <mxCell id="ef5fkB2S-IdkGvZBPRla-19" value="チーム一覧を取得更新する" style="ellipse;whiteSpace=wrap;html=1;" parent="1" vertex="1">
          <mxGeometry x="500" y="290" width="100" height="70" as="geometry" />
        </mxCell>
        <mxCell id="ef5fkB2S-IdkGvZBPRla-20" value="ペア一覧を取得・更新する" style="ellipse;whiteSpace=wrap;html=1;" parent="1" vertex="1">
          <mxGeometry x="500" y="190" width="100" height="70" as="geometry" />
        </mxCell>
        <mxCell id="ef5fkB2S-IdkGvZBPRla-22" value="参加者一覧を取得・追加・変更する" style="ellipse;whiteSpace=wrap;html=1;" parent="1" vertex="1">
          <mxGeometry x="500" y="100" width="100" height="70" as="geometry" />
        </mxCell>
        <mxCell id="ef5fkB2S-IdkGvZBPRla-23" value="課題状態を検索する" style="ellipse;whiteSpace=wrap;html=1;" parent="1" vertex="1">
          <mxGeometry x="500" y="490" width="100" height="70" as="geometry" />
        </mxCell>
        <mxCell id="ef5fkB2S-IdkGvZBPRla-45" style="edgeStyle=orthogonalEdgeStyle;rounded=0;orthogonalLoop=1;jettySize=auto;html=1;exitX=1;exitY=0.5;exitDx=0;exitDy=0;entryX=0.5;entryY=0.5;entryDx=0;entryDy=0;entryPerimeter=0;" parent="1" source="ef5fkB2S-IdkGvZBPRla-24" target="ef5fkB2S-IdkGvZBPRla-1" edge="1">
          <mxGeometry relative="1" as="geometry">
            <Array as="points">
              <mxPoint x="640" y="625" />
              <mxPoint x="640" y="255" />
            </Array>
          </mxGeometry>
        </mxCell>
        <mxCell id="ef5fkB2S-IdkGvZBPRla-24" value="合流可能なペアがない旨を通知する" style="ellipse;whiteSpace=wrap;html=1;" parent="1" vertex="1">
          <mxGeometry x="500" y="590" width="100" height="70" as="geometry" />
        </mxCell>
      </root>
    </mxGraphModel>
  </diagram>
</mxfile>
